<svg id="Layer_1" data-name="Layer 1" xmlns="http://www.w3.org/2000/svg" xmlns:xlink="http://www.w3.org/1999/xlink" viewBox="0 0 106.19 120.54"><defs><style>.cls-1,.cls-3,.cls-4{fill-rule:evenodd;}.cls-1{opacity:0.99;fill:url(#linear-gradient);}.cls-1,.cls-2{isolation:isolate;}.cls-2{font-size:116.94px;fill:#fff;font-family:SFNewRepublicSC, SF New Republic SC;}.cls-3{fill:url(#linear-gradient-2);}.cls-4{fill:url(#linear-gradient-3);}</style><linearGradient id="linear-gradient" x1="67.19" y1="29.88" x2="7.22" y2="51.71" gradientTransform="matrix(1, 0, 0, -1, 0, 82)" gradientUnits="userSpaceOnUse"><stop offset="0" stop-color="#f6a1cd"/><stop offset="1" stop-color="#fb1e90"/></linearGradient><linearGradient id="linear-gradient-2" x1="7.34" y1="44.79" x2="73.81" y2="70.31" gradientTransform="matrix(1, 0, 0, -1, 0, 82)" gradientUnits="userSpaceOnUse"><stop offset="0" stop-color="#fb1e90"/><stop offset="1" stop-color="#fc2a88"/></linearGradient><linearGradient id="linear-gradient-3" x1="16.16" y1="4.75" x2="51.63" y2="45.56" gradientTransform="matrix(1, 0, 0, -1, 0, 82)" gradientUnits="userSpaceOnUse"><stop offset="0" stop-color="#ef0e7d"/><stop offset="1" stop-color="#fb1e90"/></linearGradient></defs><title>whiteLogo</title><path id="Rounded_Rectangle_1_copy_2" data-name="Rounded Rectangle 1 copy 2" class="cls-1" d="M22.93,23.77l38.9,15.38c5.07,2,6.87,8,4,13.37s-9.29,8.12-14.36,6.12L12.58,43.26c-5.07-2-6.87-8-4-13.37S17.85,21.77,22.93,23.77Z" transform="translate(-0.68 18.88)"/><text id="D" class="cls-2" transform="translate(20.28 97.47) scale(1.04 1)">D</text><path id="Rounded_Rectangle_1" data-name="Rounded Rectangle 1" class="cls-3" d="M14.27,23.23l44-18.31a11.25,11.25,0,0,1,8.65,20.76L22.91,44a11.24,11.24,0,0,1-8.64-20.76Z" transform="translate(-0.68 18.88)"/><path id="Rounded_Rectangle_1_copy" data-name="Rounded Rectangle 1 copy" class="cls-4" d="M7.56,55.6l44-18.3A11.24,11.24,0,1,1,60.37,58l-.21.09L16.21,76.36A11.25,11.25,0,0,1,7.56,55.6Z" transform="translate(-0.68 18.88)"/></svg>