<svg id="Layer_1" data-name="Layer 1" xmlns="http://www.w3.org/2000/svg" viewBox="0 0 1150.96 228.36"><title>sdkielFull</title><path d="M654.93,1043.89V821a16.22,16.22,0,0,1,1.83-.19c27.27,0,54.55-.2,81.82.15,21,.28,41.5,4,60.92,12.42,16.94,7.38,31.5,17.89,42.72,32.74a100.5,100.5,0,0,1,18.65,43.13,133,133,0,0,1,1.4,37c-2.08,21.55-9.45,41-23.68,57.54-10.85,12.62-24.32,21.59-39.57,28A151,151,0,0,1,760.69,1042,216.37,216.37,0,0,1,731,1043.9c-24.4-.05-48.79,0-73.19,0Zm32.25-24c3.78,0,7.29,0,10.8,0,15.35-.13,30.71-.06,46-.5a106.3,106.3,0,0,0,32-5.93c30.73-10.7,48.22-32.32,52.8-64.42a117.6,117.6,0,0,0-.14-33.67,82.53,82.53,0,0,0-8.86-27.69c-9.5-17.64-24.07-29.31-42.76-36.09-13.46-4.88-27.45-6.76-41.67-7-15.43-.2-30.87-.09-46.3-.11a18,18,0,0,0-1.87.2Z" transform="translate(-422.62 -817.86)"/><path d="M922.59,821h31.93V923.41c1.18.11,1.55-.73,2.05-1.24q14.61-14.71,29.18-29.49,16.69-16.89,33.36-33.79,17.7-17.92,35.36-35.87a6.57,6.57,0,0,1,5.19-2.23c11.52.12,23,.05,34.55.05h2.59l.25.44c-5.17,5.36-10.5,10.56-15.76,15.83s-10.66,10.6-16,15.9-10.63,10.63-16,15.93l-15.81,15.74q-8,8-15.95,15.93t-16,15.91c-5.3,5.3-10.58,10.63-16,16.08l112.9,111.17c-1.2,0-1.88.11-2.56.11-12.48,0-25,0-37.44,0a4.82,4.82,0,0,1-3.76-1.57q-37.79-37.86-75.63-75.65-11.19-11.21-22.38-22.4c-.53-.54-1.11-1-2-1.87v101.43c-10.8.06-21.39,0-32,0C922.28,1042.05,922.11,824.76,922.59,821Z" transform="translate(-422.62 -817.86)"/><path d="M587.65,875.14H552.59c-.16-.25-.29-.37-.32-.51-2.25-11.48-9.65-19-19.25-24.73a46.8,46.8,0,0,0-16.19-5.7,74.27,74.27,0,0,0-30.71.68,43.56,43.56,0,0,0-18.48,9.24,29.2,29.2,0,0,0-10.42,21.1,49.3,49.3,0,0,0,.46,10,24,24,0,0,0,7.46,13.9,49.29,49.29,0,0,0,17.83,11c10.77,3.87,21.82,6.75,32.89,9.56,12.79,3.25,25.48,6.76,37.79,11.54a66.22,66.22,0,0,1,24.05,16.22,43.44,43.44,0,0,1,11.52,23.26c1.61,9.41,1.64,18.77-1.24,28-4.41,14.08-13.18,24.83-25.45,32.85a87.83,87.83,0,0,1-36.36,13.38,128.67,128.67,0,0,1-45.55-1.54c-13.69-3-26.38-8.23-37.3-17.2-9.79-8.06-16.68-18-19.46-30.54a44.27,44.27,0,0,1-1.23-11.05h34.26c.17.87.32,1.79.52,2.7,3.46,15.83,13.07,26.16,28.37,31.17,9.88,3.24,20.12,3.46,30.38,2.67a58.52,58.52,0,0,0,17.69-4.05,39.57,39.57,0,0,0,16.09-11.37c8.3-10.1,9.63-21.44,5.42-33.56a24.48,24.48,0,0,0-6.61-9.59A51.31,51.31,0,0,0,530,951.32c-11.25-3.92-22.8-6.79-34.37-9.59a292,292,0,0,1-35.34-10.51,62.67,62.67,0,0,1-25.59-18.05,43.24,43.24,0,0,1-9.74-21.81c-1.52-9.43-1.42-18.79,1.37-28,4-13.27,12.35-23.3,23.79-30.88a82.49,82.49,0,0,1,29.38-11.88,127.5,127.5,0,0,1,56.13.78,77.09,77.09,0,0,1,32.65,16.48,55.84,55.84,0,0,1,19.42,35.83A13.54,13.54,0,0,1,587.65,875.14Z" transform="translate(-422.62 -817.86)"/><path d="M1256.07,1043.71V820.65h132.45c.49,1.66.64,20.2.15,23.82H1288.39V919c6,.27,12,.08,17.95.12s12,0,18,0h53.83v24c-7.44.22-14.92.06-22.4.09s-14.88,0-22.32,0h-44.81c-.52,1.9-.6,74-.1,76.64h99.9c.58,1.82.78,19.13.31,23.91Z" transform="translate(-422.62 -817.86)"/><path d="M1455.17,821h32v199.21h86.41v23.57H1455.35C1454.89,1042,1454.68,825.59,1455.17,821Z" transform="translate(-422.62 -817.86)"/><path d="M1183.91,1043.78h-32V821h32Z" transform="translate(-422.62 -817.86)"/></svg>